<svg version="1.2" xmlns="http://www.w3.org/2000/svg" viewBox="0 0 400 400" width="400" height="400"><style>.s0{fill:#5b7a7f}.s1{fill:#769ca5}.s2{fill:#90b5bf}.s3{fill:#ffa233}.s4{fill:#ffc248}</style><path fill-rule="evenodd" class="s0" d="m0 242.8c0-9.2 7.5-16.7 16.7-16.7h366.6c9.2 0 16.7 7.5 16.7 16.7v1.4c0 9.2-7.5 16.7-16.7 16.7h-366.6c-9.2 0-16.7-7.5-16.7-16.7zm154.8-149.8c-0.8-9.6 6.2-18 15.8-18.8l52-4.6c9.5-0.8 18 6.3 18.8 15.8l2.3 26l-86.6 7.6z" /><path class="s1" d="m345.9 219.1l-9.2 92.2c-3.6 35.5-33.5 62.6-69.2 62.6h-135c-35.7 0-65.6-27.1-69.2-62.6l-9.2-92.2c-1-10.2 7-19.1 17.3-19.1h257.2c10.3 0 18.3 8.9 17.3 19.1z" /><path fill-rule="evenodd" class="s2" d="m345.9 219.1l-9.2 92.2c-3.6 35.5-33.5 62.6-69.2 62.6h-54.9c-35.7 0-65.7-27.1-69.2-62.6l-9.2-92.2c-1.1-10.2 7-19.1 17.3-19.1h177.1c10.3 0 18.3 8.9 17.3 19.1zm-8.2-81l-268.6 23.5c-11.9 1.1-22.5-7.8-23.5-19.7c-1.1-12 7.8-22.6 19.8-23.6l268.5-23.5c12-1 22.5 7.8 23.5 19.8c1.1 11.9-7.8 22.5-19.7 23.5z" /><path class="s1" d="m357.4 114.6c1.1 11.9-7.8 22.5-19.7 23.5l-268.6 23.5c-11.9 1.1-22.5-7.8-23.5-19.7c-0.4-4.8 0.7-9.4 3.1-13.2c4.1 6.8 11.9 11.1 20.4 10.3l268.6-23.4c7.1-0.7 13.2-4.7 16.7-10.4c1.6 2.7 2.7 5.9 3 9.4z" /><path class="s3" d="m287 191.3c4.8 0 8.7 3.9 8.7 8.7v69.6c0 9.8-8.2 17.7-18.1 17.3c-9.4-0.3-16.7-8.3-16.7-17.8v-10.6c-3 1.8-6.6 2.7-10.4 2.3c-9-0.9-15.7-8.7-15.7-17.7v-43.1c0-4.8 3.9-8.7 8.7-8.7h17.4h8.7z" /><path class="s4" d="m278.3 243.5c-9.6 0-17.4-7.8-17.4-17.4v-34.8h26.1c4.8 0 8.7 3.9 8.7 8.7v26.1c0 9.6-7.8 17.4-17.4 17.4z" /><path class="s0" d="m363 393.5c0 3.6-2.9 6.5-6.5 6.5h-321.7c-3.6 0-6.5-2.9-6.5-6.5c0-3.6 2.9-6.5 6.5-6.5h321.7c3.6 0 6.5 2.9 6.5 6.5z" /><path fill-rule="evenodd" class="s4" d="m284.8 6.5v60.9c0 3.6-2.9 6.5-6.5 6.5c-3.6 0-6.6-2.9-6.6-6.5v-60.9c0-3.6 3-6.5 6.6-6.5c3.6 0 6.5 2.9 6.5 6.5zm19.5-6.5c-3.6 0-6.5 2.9-6.5 6.5v60.9c0 3.6 2.9 6.5 6.5 6.5c3.6 0 6.6-2.9 6.6-6.5v-60.9c0-3.6-2.9-6.5-6.6-6.5z" /></svg>